<svg width="901" height="329" xmlns="http://www.w3.org/2000/svg" xmlns:xlink="http://www.w3.org/1999/xlink"><defs><path d="M0 0h901v377H0V0z" id="path-1"/></defs><g id="Product" fill="none" fill-rule="evenodd"><g id="Background--80%" transform="translate(-377 -554)"><g id="Pricing" transform="translate(377 554)"><mask id="mask-2" fill="#fff"><use xlink:href="#path-1"/></mask><g id="Group" mask="url(#mask-2)" fill="#3ED3B1"><g transform="translate(396.088 240.127)"><path d="M81.984 48.9c-3.932 0-7.12-3.166-7.12-7.072s3.188-7.072 7.12-7.072c3.933 0 7.12 3.166 7.12 7.072s-3.187 7.072-7.12 7.072zm0-2.424c2.584 0 4.68-2.081 4.68-4.648 0-2.567-2.096-4.647-4.68-4.647-2.584 0-4.679 2.08-4.679 4.647s2.095 4.648 4.68 4.648z" id="Oval-18" fill-rule="nonzero"/><path d="M81.374 8.891h8.544c2.023 0 3.662 1.628 3.662 3.64v59c0 2.009-1.64 3.638-3.662 3.638H8.948c-3.594 0-6.507-2.894-6.507-6.468V50.91c0-.669-.546-1.212-1.22-1.212A1.219 1.219 0 0 0 0 50.912V68.7c0 4.913 4.005 8.893 8.948 8.893h80.97c3.37 0 6.103-2.715 6.103-6.064v-59c0-3.35-2.731-6.064-6.103-6.064h-8.544c-.674 0-1.22.543-1.22 1.213s.546 1.212 1.22 1.212zM2.441 37.848V15.36c0-3.572 2.916-6.469 6.51-6.469H45.57c.675 0 1.221-.543 1.221-1.212 0-.67-.546-1.213-1.22-1.213H8.95C4.01 6.466 0 10.45 0 15.36v22.488c0 .67.546 1.212 1.22 1.212.675 0 1.221-.543 1.221-1.212z" id="Rectangle-47" fill-rule="nonzero"/><path d="M86.256 76.38c0 2.006-1.668 3.639-3.734 3.639H64.454c-.674 0-1.22.543-1.22 1.212 0 .67.546 1.213 1.22 1.213h18.068c3.406 0 6.176-2.71 6.176-6.063 0-.67-.547-1.213-1.221-1.213s-1.22.543-1.22 1.213zm-32.934 3.64H9.066c-3.663 0-6.625-2.9-6.625-6.468v-4.04c0-.67-.546-1.212-1.22-1.212C.546 68.3 0 68.843 0 69.512v4.04c0 4.915 4.063 8.893 9.066 8.893h44.256c.674 0 1.22-.543 1.22-1.213s-.546-1.212-1.22-1.212z" id="Combined-Shape" fill-rule="nonzero"/><rect id="Rectangle-49-Copy-5" x="8.544" y="69.511" width="13.834" height="2.021" rx="1.01"/><rect id="Rectangle-49-Copy-6" x="24.819" y="69.511" width="13.834" height="2.021" rx="1.01"/><rect id="Rectangle-49-Copy-7" x="41.094" y="69.511" width="13.834" height="2.021" rx="1.01"/><rect id="Rectangle-49-Copy-8" x="57.369" y="69.511" width="13.834" height="2.021" rx="1.01"/><rect id="Rectangle-49-Copy-4" x="8.544" y="25.056" width="78.933" height="2.021" rx="1.01"/><rect id="Rectangle-49-Copy-9" x="73.643" y="69.511" width="13.834" height="2.021" rx="1.01"/><path d="M31.741 16.022l-12.677 8.801a1.207 1.207 0 0 0-.301 1.689 1.226 1.226 0 0 0 1.7.299l12.677-8.802c.552-.383.687-1.14.301-1.688a1.226 1.226 0 0 0-1.7-.3zm49.345 9.176a11.093 11.093 0 0 0-1.28-2.388L67.19 4.914C63.65-.106 56.673-1.33 51.615 2.189l-13.69 9.545a1.207 1.207 0 0 0-.298 1.69c.388.547 1.149.68 1.7.295l13.69-9.544c3.952-2.75 9.407-1.794 12.173 2.13L77.806 24.2a8.673 8.673 0 0 1 1.002 1.867c.242.625.948.937 1.577.697.63-.24.943-.942.701-1.567z" id="Combined-Shape" fill-rule="nonzero"/><path d="M16.071 61.735l-2.146 1.173c-.622.34-1.034.056-.919-.646l.417-2.527-1.751-1.774c-.495-.502-.325-.995.363-1.099l2.4-.362 1.087-2.29c.303-.639.798-.633 1.099 0l1.087 2.29 2.4.362c.695.105.857.598.363 1.099l-1.752 1.774.417 2.527c.115.696-.303.982-.918.646l-2.147-1.173z" id="Star-2"/><path d="M31.734 25.056l19.853-13.9a1.34 1.34 0 0 1 1.87.331 1.34 1.34 0 0 1-.328 1.87l-16.708 11.7h-4.687zm11.226 0L67.03 8.201a1.304 1.304 0 0 1 1.821.32 1.31 1.31 0 0 1-.322 1.82L47.515 25.056h-4.556z" id="Combined-Shape"/></g></g><g id="Group-Copy-15" mask="url(#mask-2)" fill="#F3F3F8"><g transform="translate(103.223 234.524)"><path d="M92.916 55.547c-4.457 0-8.07-3.597-8.07-8.034 0-4.436 3.613-8.033 8.07-8.033 4.456 0 8.07 3.597 8.07 8.033 0 4.437-3.614 8.034-8.07 8.034zm0-2.754c2.928 0 5.302-2.364 5.302-5.28 0-2.915-2.374-5.279-5.302-5.279-2.93 0-5.303 2.364-5.303 5.28 0 2.915 2.374 5.279 5.303 5.279z" id="Oval-18" fill-rule="nonzero"/><path d="M92.224 10.1h9.683a4.14 4.14 0 0 1 4.15 4.133v67.02a4.141 4.141 0 0 1-4.15 4.133H10.14c-4.073 0-7.374-3.287-7.374-7.348V57.832c0-.76-.62-1.378-1.384-1.378A1.38 1.38 0 0 0 0 57.832v20.206c0 5.582 4.54 10.103 10.141 10.103h91.766c3.82 0 6.917-3.084 6.917-6.888v-67.02c0-3.806-3.096-6.888-6.917-6.888h-9.683a1.38 1.38 0 0 0-1.383 1.377c0 .76.619 1.377 1.383 1.377zM2.767 42.991V17.447c0-4.057 3.305-7.348 7.378-7.348h41.5a1.38 1.38 0 0 0 1.384-1.377c0-.76-.62-1.377-1.384-1.377h-41.5C4.544 7.345 0 11.87 0 17.447v25.545c0 .76.62 1.377 1.383 1.377a1.38 1.38 0 0 0 1.384-1.377z" id="Rectangle-47" fill-rule="nonzero"/><path d="M97.757 86.763c0 2.277-1.89 4.132-4.232 4.132H73.048a1.38 1.38 0 0 0-1.383 1.377c0 .761.62 1.378 1.383 1.378h20.477c3.86 0 6.999-3.08 6.999-6.887 0-.76-.62-1.378-1.383-1.378a1.38 1.38 0 0 0-1.384 1.378zm-37.325 4.132H10.274c-4.15 0-7.507-3.294-7.507-7.347V78.96c0-.761-.62-1.378-1.384-1.378A1.38 1.38 0 0 0 0 78.96v4.588C0 89.132 4.604 93.65 10.274 93.65h50.158a1.38 1.38 0 0 0 1.383-1.378c0-.76-.62-1.377-1.383-1.377z" id="Combined-Shape" fill-rule="nonzero"/><rect id="Rectangle-49-Copy-5" x="9.684" y="78.96" width="15.678" height="2.295" rx="1.148"/><rect id="Rectangle-49-Copy-6" x="28.128" y="78.96" width="15.678" height="2.295" rx="1.148"/><rect id="Rectangle-49-Copy-7" x="46.573" y="78.96" width="15.678" height="2.295" rx="1.148"/><rect id="Rectangle-49-Copy-8" x="65.018" y="78.96" width="15.678" height="2.295" rx="1.148"/><rect id="Rectangle-49-Copy-4" x="9.684" y="28.462" width="89.457" height="2.295" rx="1.148"/><rect id="Rectangle-49-Copy-9" x="83.463" y="78.96" width="15.678" height="2.295" rx="1.148"/><path d="M35.974 18.2l-14.368 9.997a1.373 1.373 0 0 0-.342 1.918c.438.624 1.3.776 1.927.34l14.368-9.998a1.373 1.373 0 0 0 .34-1.918 1.387 1.387 0 0 0-1.925-.34zm55.924 10.423a12.61 12.61 0 0 0-1.452-2.713L76.148 5.582C72.138-.121 64.23-1.51 58.497 2.487L42.982 13.329a1.373 1.373 0 0 0-.338 1.919 1.387 1.387 0 0 0 1.927.336L60.085 4.742c4.48-3.122 10.662-2.037 13.797 2.42L88.18 27.49a9.86 9.86 0 0 1 1.135 2.122 1.385 1.385 0 0 0 1.788.791 1.375 1.375 0 0 0 .795-1.78z" id="Combined-Shape" fill-rule="nonzero"/><path d="M18.214 70.126l-2.433 1.332c-.705.386-1.172.064-1.04-.733l.472-2.87-1.985-2.016c-.561-.57-.368-1.13.411-1.248l2.72-.412 1.238-2.611c.34-.72.89-.726 1.235 0l1.237 2.611 2.72.412c.788.12.971.679.411 1.248l-1.985 2.015.473 2.87c.13.792-.328 1.125-1.04.734l-2.434-1.332z" id="Star-2"/><path d="M35.966 28.462L58.463 12.71a1.52 1.52 0 0 1 2.121.38 1.52 1.52 0 0 1-.369 2.122L41.29 28.462h-5.324zm12.704 0L75.967 9.348a1.48 1.48 0 0 1 2.066.366c.47.671.303 1.599-.364 2.066L53.845 28.462H48.67z" id="Combined-Shape"/></g></g><g id="Group-Copy-16" mask="url(#mask-2)" fill="#D6D6E4"><g transform="translate(705.757 234.524)"><path d="M92.916 55.547c-4.457 0-8.07-3.597-8.07-8.034 0-4.436 3.613-8.033 8.07-8.033 4.456 0 8.07 3.597 8.07 8.033 0 4.437-3.614 8.034-8.07 8.034zm0-2.754c2.928 0 5.302-2.364 5.302-5.28 0-2.915-2.374-5.279-5.302-5.279-2.93 0-5.303 2.364-5.303 5.28 0 2.915 2.374 5.279 5.303 5.279z" id="Oval-18" fill-rule="nonzero"/><path d="M92.224 10.1h9.683a4.14 4.14 0 0 1 4.15 4.133v67.02a4.141 4.141 0 0 1-4.15 4.133H10.14c-4.073 0-7.374-3.287-7.374-7.348V57.832c0-.76-.62-1.378-1.384-1.378A1.38 1.38 0 0 0 0 57.832v20.206c0 5.582 4.54 10.103 10.141 10.103h91.766c3.82 0 6.917-3.084 6.917-6.888v-67.02c0-3.806-3.096-6.888-6.917-6.888h-9.683a1.38 1.38 0 0 0-1.383 1.377c0 .76.619 1.377 1.383 1.377zM2.767 42.991V17.447c0-4.057 3.305-7.348 7.378-7.348h41.5a1.38 1.38 0 0 0 1.384-1.377c0-.76-.62-1.377-1.384-1.377h-41.5C4.544 7.345 0 11.87 0 17.447v25.545c0 .76.62 1.377 1.383 1.377a1.38 1.38 0 0 0 1.384-1.377z" id="Rectangle-47" fill-rule="nonzero"/><path d="M97.757 86.763c0 2.277-1.89 4.132-4.232 4.132H73.048a1.38 1.38 0 0 0-1.383 1.377c0 .761.62 1.378 1.383 1.378h20.477c3.86 0 6.999-3.08 6.999-6.887 0-.76-.62-1.378-1.383-1.378a1.38 1.38 0 0 0-1.384 1.378zm-37.325 4.132H10.274c-4.15 0-7.507-3.294-7.507-7.347V78.96c0-.761-.62-1.378-1.384-1.378A1.38 1.38 0 0 0 0 78.96v4.588C0 89.132 4.604 93.65 10.274 93.65h50.158a1.38 1.38 0 0 0 1.383-1.378c0-.76-.62-1.377-1.383-1.377z" id="Combined-Shape" fill-rule="nonzero"/><rect id="Rectangle-49-Copy-5" x="9.684" y="78.96" width="15.678" height="2.295" rx="1.148"/><rect id="Rectangle-49-Copy-6" x="28.128" y="78.96" width="15.678" height="2.295" rx="1.148"/><rect id="Rectangle-49-Copy-7" x="46.573" y="78.96" width="15.678" height="2.295" rx="1.148"/><rect id="Rectangle-49-Copy-8" x="65.018" y="78.96" width="15.678" height="2.295" rx="1.148"/><rect id="Rectangle-49-Copy-4" x="9.684" y="28.462" width="89.457" height="2.295" rx="1.148"/><rect id="Rectangle-49-Copy-9" x="83.463" y="78.96" width="15.678" height="2.295" rx="1.148"/><path d="M35.974 18.2l-14.368 9.997a1.373 1.373 0 0 0-.342 1.918c.438.624 1.3.776 1.927.34l14.368-9.998a1.373 1.373 0 0 0 .34-1.918 1.387 1.387 0 0 0-1.925-.34zm55.924 10.423a12.61 12.61 0 0 0-1.452-2.713L76.148 5.582C72.138-.121 64.23-1.51 58.497 2.487L42.982 13.329a1.373 1.373 0 0 0-.338 1.919 1.387 1.387 0 0 0 1.927.336L60.085 4.742c4.48-3.122 10.662-2.037 13.797 2.42L88.18 27.49a9.86 9.86 0 0 1 1.135 2.122 1.385 1.385 0 0 0 1.788.791 1.375 1.375 0 0 0 .795-1.78z" id="Combined-Shape" fill-rule="nonzero"/><path d="M18.214 70.126l-2.433 1.332c-.705.386-1.172.064-1.04-.733l.472-2.87-1.985-2.016c-.561-.57-.368-1.13.411-1.248l2.72-.412 1.238-2.611c.34-.72.89-.726 1.235 0l1.237 2.611 2.72.412c.788.12.971.679.411 1.248l-1.985 2.015.473 2.87c.13.792-.328 1.125-1.04.734l-2.434-1.332z" id="Star-2"/><path d="M35.966 28.462L58.463 12.71a1.52 1.52 0 0 1 2.121.38 1.52 1.52 0 0 1-.369 2.122L41.29 28.462h-5.324zm12.704 0L75.967 9.348a1.48 1.48 0 0 1 2.066.366c.47.671.303 1.599-.364 2.066L53.845 28.462H48.67z" id="Combined-Shape"/></g></g><g id="Group-Copy-5" mask="url(#mask-2)" fill="#D6D6E4"><g transform="translate(250.456 104.856)"><path d="M81.984 48.9c-3.932 0-7.12-3.166-7.12-7.072s3.188-7.072 7.12-7.072c3.933 0 7.12 3.166 7.12 7.072s-3.187 7.072-7.12 7.072zm0-2.424c2.584 0 4.68-2.081 4.68-4.648 0-2.567-2.096-4.647-4.68-4.647-2.584 0-4.679 2.08-4.679 4.647s2.095 4.648 4.68 4.648z" id="Oval-18" fill-rule="nonzero"/><path d="M81.374 8.891h8.544c2.023 0 3.662 1.628 3.662 3.64v59c0 2.009-1.64 3.638-3.662 3.638H8.948c-3.594 0-6.507-2.894-6.507-6.468V50.91c0-.669-.546-1.212-1.22-1.212A1.219 1.219 0 0 0 0 50.912V68.7c0 4.913 4.005 8.893 8.948 8.893h80.97c3.37 0 6.103-2.715 6.103-6.064v-59c0-3.35-2.731-6.064-6.103-6.064h-8.544c-.674 0-1.22.543-1.22 1.213s.546 1.212 1.22 1.212zM2.441 37.848V15.36c0-3.572 2.916-6.469 6.51-6.469H45.57c.675 0 1.221-.543 1.221-1.212 0-.67-.546-1.213-1.22-1.213H8.95C4.01 6.466 0 10.45 0 15.36v22.488c0 .67.546 1.212 1.22 1.212.675 0 1.221-.543 1.221-1.212z" id="Rectangle-47" fill-rule="nonzero"/><path d="M86.256 76.38c0 2.006-1.668 3.639-3.734 3.639H64.454c-.674 0-1.22.543-1.22 1.212 0 .67.546 1.213 1.22 1.213h18.068c3.406 0 6.176-2.71 6.176-6.063 0-.67-.547-1.213-1.221-1.213s-1.22.543-1.22 1.213zm-32.934 3.64H9.066c-3.663 0-6.625-2.9-6.625-6.468v-4.04c0-.67-.546-1.212-1.22-1.212C.546 68.3 0 68.843 0 69.512v4.04c0 4.915 4.063 8.893 9.066 8.893h44.256c.674 0 1.22-.543 1.22-1.213s-.546-1.212-1.22-1.212z" id="Combined-Shape" fill-rule="nonzero"/><rect id="Rectangle-49-Copy-5" x="8.544" y="69.511" width="13.834" height="2.021" rx="1.01"/><rect id="Rectangle-49-Copy-6" x="24.819" y="69.511" width="13.834" height="2.021" rx="1.01"/><rect id="Rectangle-49-Copy-7" x="41.094" y="69.511" width="13.834" height="2.021" rx="1.01"/><rect id="Rectangle-49-Copy-8" x="57.369" y="69.511" width="13.834" height="2.021" rx="1.01"/><rect id="Rectangle-49-Copy-4" x="8.544" y="25.056" width="78.933" height="2.021" rx="1.01"/><rect id="Rectangle-49-Copy-9" x="73.643" y="69.511" width="13.834" height="2.021" rx="1.01"/><path d="M31.741 16.022l-12.677 8.801a1.207 1.207 0 0 0-.301 1.689 1.226 1.226 0 0 0 1.7.299l12.677-8.802c.552-.383.687-1.14.301-1.688a1.226 1.226 0 0 0-1.7-.3zm49.345 9.176a11.093 11.093 0 0 0-1.28-2.388L67.19 4.914C63.65-.106 56.673-1.33 51.615 2.189l-13.69 9.545a1.207 1.207 0 0 0-.298 1.69c.388.547 1.149.68 1.7.295l13.69-9.544c3.952-2.75 9.407-1.794 12.173 2.13L77.806 24.2a8.673 8.673 0 0 1 1.002 1.867c.242.625.948.937 1.577.697.63-.24.943-.942.701-1.567z" id="Combined-Shape" fill-rule="nonzero"/><path d="M16.071 61.735l-2.146 1.173c-.622.34-1.034.056-.919-.646l.417-2.527-1.751-1.774c-.495-.502-.325-.995.363-1.099l2.4-.362 1.087-2.29c.303-.639.798-.633 1.099 0l1.087 2.29 2.4.362c.695.105.857.598.363 1.099l-1.752 1.774.417 2.527c.115.696-.303.982-.918.646l-2.147-1.173z" id="Star-2"/><path d="M31.734 25.056l19.853-13.9a1.34 1.34 0 0 1 1.87.331 1.34 1.34 0 0 1-.328 1.87l-16.708 11.7h-4.687zm11.226 0L67.03 8.201a1.304 1.304 0 0 1 1.821.32 1.31 1.31 0 0 1-.322 1.82L47.515 25.056h-4.556z" id="Combined-Shape"/></g></g><g id="Group-Copy-17" mask="url(#mask-2)" fill="#F3F3F8"><g transform="translate(-43.21 108.057)"><path d="M73.786 44.153c-3.54 0-6.408-2.86-6.408-6.386 0-3.527 2.869-6.386 6.408-6.386s6.408 2.86 6.408 6.386c0 3.527-2.869 6.386-6.408 6.386zm0-2.19a4.204 4.204 0 0 0 4.211-4.196 4.204 4.204 0 0 0-4.211-4.196 4.204 4.204 0 0 0-4.211 4.196 4.204 4.204 0 0 0 4.21 4.196z" id="Oval-18" fill-rule="nonzero"/><path d="M73.237 8.028h7.69a3.29 3.29 0 0 1 3.295 3.286v53.271a3.291 3.291 0 0 1-3.296 3.286H8.053c-3.235 0-5.856-2.613-5.856-5.84V45.969c0-.605-.492-1.095-1.098-1.095-.607 0-1.099.49-1.099 1.095V62.03c0 4.436 3.605 8.03 8.053 8.03h72.873c3.033 0 5.493-2.452 5.493-5.476v-53.27c0-3.026-2.458-5.476-5.493-5.476h-7.69c-.606 0-1.098.49-1.098 1.095s.492 1.095 1.099 1.095zM2.197 34.173V13.868c0-3.225 2.625-5.84 5.859-5.84h32.956c.607 0 1.099-.49 1.099-1.095 0-.604-.492-1.095-1.099-1.095H8.056C3.608 5.838 0 9.434 0 13.868v20.305c0 .605.492 1.095 1.099 1.095.606 0 1.098-.49 1.098-1.095z" id="Rectangle-47" fill-rule="nonzero"/><path d="M77.63 68.965c0 1.81-1.5 3.285-3.36 3.285H58.009c-.607 0-1.099.49-1.099 1.095 0 .604.492 1.094 1.099 1.094h16.26c3.067 0 5.559-2.447 5.559-5.474 0-.604-.492-1.094-1.099-1.094-.606 0-1.098.49-1.098 1.094zM47.99 72.25H8.16c-3.297 0-5.963-2.618-5.963-5.84v-3.647c0-.605-.492-1.095-1.098-1.095-.607 0-1.099.49-1.099 1.095v3.647c0 4.438 3.656 8.03 8.16 8.03h39.83c.607 0 1.099-.49 1.099-1.095s-.492-1.095-1.099-1.095z" id="Combined-Shape" fill-rule="nonzero"/><rect id="Rectangle-49-Copy-7" x="36.984" y="62.763" width="12.45" height="1.824" rx=".912"/><rect id="Rectangle-49-Copy-8" x="51.632" y="62.763" width="12.45" height="1.824" rx=".912"/><rect id="Rectangle-49-Copy-4" x="7.69" y="22.624" width="71.039" height="1.824" rx=".912"/><rect id="Rectangle-49-Copy-9" x="66.279" y="62.763" width="12.45" height="1.824" rx=".912"/><path d="M28.567 14.466l-11.41 7.947a1.092 1.092 0 0 0-.27 1.525 1.101 1.101 0 0 0 1.53.27l11.409-7.947a1.092 1.092 0 0 0 .271-1.525 1.101 1.101 0 0 0-1.53-.27zm44.41 8.286a10.026 10.026 0 0 0-1.152-2.157L60.47 4.437C57.285-.096 51.006-1.2 46.453 1.977l-12.32 8.618a1.092 1.092 0 0 0-.268 1.525 1.101 1.101 0 0 0 1.53.267l12.32-8.617c3.557-2.483 8.467-1.62 10.956 1.923L70.025 21.85a7.84 7.84 0 0 1 .902 1.687 1.1 1.1 0 0 0 1.42.628c.566-.217.848-.85.63-1.414z" id="Combined-Shape" fill-rule="nonzero"/><path d="M28.561 22.624l17.865-12.51a1.207 1.207 0 0 1 1.685.302c.384.55.256 1.303-.293 1.687l-15.025 10.52h-4.232zm10.083 0L60.317 7.448a1.181 1.181 0 0 1 1.65.285c.374.533.242 1.27-.297 1.648L42.757 22.624h-4.113z" id="Combined-Shape"/></g></g><g id="Group-Copy-18" mask="url(#mask-2)" fill="#F3F3F8"><g transform="translate(857.79 108.057)"><path d="M73.237 8.028h7.69a3.29 3.29 0 0 1 3.295 3.286v53.271a3.291 3.291 0 0 1-3.296 3.286H8.053c-3.235 0-5.856-2.613-5.856-5.84V45.969c0-.605-.492-1.095-1.098-1.095-.607 0-1.099.49-1.099 1.095V62.03c0 4.436 3.605 8.03 8.053 8.03h72.873c3.033 0 5.493-2.452 5.493-5.476v-53.27c0-3.026-2.458-5.476-5.493-5.476h-7.69c-.606 0-1.098.49-1.098 1.095s.492 1.095 1.099 1.095zM2.197 34.173V13.868c0-3.225 2.625-5.84 5.859-5.84h32.956c.607 0 1.099-.49 1.099-1.095 0-.604-.492-1.095-1.099-1.095H8.056C3.608 5.838 0 9.434 0 13.868v20.305c0 .605.492 1.095 1.099 1.095.606 0 1.098-.49 1.098-1.095z" id="Rectangle-47" fill-rule="nonzero"/><path d="M77.63 68.965c0 1.81-1.5 3.285-3.36 3.285H58.009c-.607 0-1.099.49-1.099 1.095 0 .604.492 1.094 1.099 1.094h16.26c3.067 0 5.559-2.447 5.559-5.474 0-.604-.492-1.094-1.099-1.094-.606 0-1.098.49-1.098 1.094zM47.99 72.25H8.16c-3.297 0-5.963-2.618-5.963-5.84v-3.647c0-.605-.492-1.095-1.098-1.095-.607 0-1.099.49-1.099 1.095v3.647c0 4.438 3.656 8.03 8.16 8.03h39.83c.607 0 1.099-.49 1.099-1.095s-.492-1.095-1.099-1.095z" id="Combined-Shape" fill-rule="nonzero"/><rect id="Rectangle-49-Copy-5" x="7.69" y="62.763" width="12.45" height="1.824" rx=".912"/><rect id="Rectangle-49-Copy-6" x="22.337" y="62.763" width="12.45" height="1.824" rx=".912"/><rect id="Rectangle-49-Copy-7" x="36.984" y="62.763" width="12.45" height="1.824" rx=".912"/><rect id="Rectangle-49-Copy-4" x="7.69" y="22.624" width="71.039" height="1.824" rx=".912"/><path d="M28.567 14.466l-11.41 7.947a1.092 1.092 0 0 0-.27 1.525 1.101 1.101 0 0 0 1.53.27l11.409-7.947a1.092 1.092 0 0 0 .271-1.525 1.101 1.101 0 0 0-1.53-.27zm44.41 8.286a10.026 10.026 0 0 0-1.152-2.157L60.47 4.437C57.285-.096 51.006-1.2 46.453 1.977l-12.32 8.618a1.092 1.092 0 0 0-.268 1.525 1.101 1.101 0 0 0 1.53.267l12.32-8.617c3.557-2.483 8.467-1.62 10.956 1.923L70.025 21.85a7.84 7.84 0 0 1 .902 1.687 1.1 1.1 0 0 0 1.42.628c.566-.217.848-.85.63-1.414z" id="Combined-Shape" fill-rule="nonzero"/><path d="M14.464 55.741l-1.932 1.06c-.56.306-.93.05-.826-.584l.375-2.281-1.576-1.603c-.446-.452-.293-.898.326-.991l2.16-.328.983-2.075c.27-.573.708-.577.98 0l.983 2.075 2.16.328c.626.094.772.54.327.991l-1.577 1.603.376 2.281c.103.629-.273.887-.827.583l-1.932-1.059z" id="Star-2"/><path d="M28.561 22.624l17.865-12.51a1.207 1.207 0 0 1 1.685.302c.384.55.256 1.303-.293 1.687l-15.025 10.52h-4.232zm10.083 0L60.317 7.448a1.181 1.181 0 0 1 1.65.285c.374.533.242 1.27-.297 1.648L42.757 22.624h-4.113z" id="Combined-Shape"/></g></g><g id="Group-Copy-12" mask="url(#mask-2)" fill="#F3F3F8"><g transform="translate(552.123 104.856)"><path d="M81.984 48.9c-3.932 0-7.12-3.166-7.12-7.072s3.188-7.072 7.12-7.072c3.933 0 7.12 3.166 7.12 7.072s-3.187 7.072-7.12 7.072zm0-2.424c2.584 0 4.68-2.081 4.68-4.648 0-2.567-2.096-4.647-4.68-4.647-2.584 0-4.679 2.08-4.679 4.647s2.095 4.648 4.68 4.648z" id="Oval-18" fill-rule="nonzero"/><path d="M81.374 8.891h8.544c2.023 0 3.662 1.628 3.662 3.64v59c0 2.009-1.64 3.638-3.662 3.638H8.948c-3.594 0-6.507-2.894-6.507-6.468V50.91c0-.669-.546-1.212-1.22-1.212A1.219 1.219 0 0 0 0 50.912V68.7c0 4.913 4.005 8.893 8.948 8.893h80.97c3.37 0 6.103-2.715 6.103-6.064v-59c0-3.35-2.731-6.064-6.103-6.064h-8.544c-.674 0-1.22.543-1.22 1.213s.546 1.212 1.22 1.212zM2.441 37.848V15.36c0-3.572 2.916-6.469 6.51-6.469H45.57c.675 0 1.221-.543 1.221-1.212 0-.67-.546-1.213-1.22-1.213H8.95C4.01 6.466 0 10.45 0 15.36v22.488c0 .67.546 1.212 1.22 1.212.675 0 1.221-.543 1.221-1.212z" id="Rectangle-47" fill-rule="nonzero"/><path d="M86.256 76.38c0 2.006-1.668 3.639-3.734 3.639H64.454c-.674 0-1.22.543-1.22 1.212 0 .67.546 1.213 1.22 1.213h18.068c3.406 0 6.176-2.71 6.176-6.063 0-.67-.547-1.213-1.221-1.213s-1.22.543-1.22 1.213zm-32.934 3.64H9.066c-3.663 0-6.625-2.9-6.625-6.468v-4.04c0-.67-.546-1.212-1.22-1.212C.546 68.3 0 68.843 0 69.512v4.04c0 4.915 4.063 8.893 9.066 8.893h44.256c.674 0 1.22-.543 1.22-1.213s-.546-1.212-1.22-1.212z" id="Combined-Shape" fill-rule="nonzero"/><rect id="Rectangle-49-Copy-5" x="8.544" y="69.511" width="13.834" height="2.021" rx="1.01"/><rect id="Rectangle-49-Copy-6" x="24.819" y="69.511" width="13.834" height="2.021" rx="1.01"/><rect id="Rectangle-49-Copy-7" x="41.094" y="69.511" width="13.834" height="2.021" rx="1.01"/><rect id="Rectangle-49-Copy-8" x="57.369" y="69.511" width="13.834" height="2.021" rx="1.01"/><rect id="Rectangle-49-Copy-4" x="8.544" y="25.056" width="78.933" height="2.021" rx="1.01"/><rect id="Rectangle-49-Copy-9" x="73.643" y="69.511" width="13.834" height="2.021" rx="1.01"/><path d="M31.741 16.022l-12.677 8.801a1.207 1.207 0 0 0-.301 1.689 1.226 1.226 0 0 0 1.7.299l12.677-8.802c.552-.383.687-1.14.301-1.688a1.226 1.226 0 0 0-1.7-.3zm49.345 9.176a11.093 11.093 0 0 0-1.28-2.388L67.19 4.914C63.65-.106 56.673-1.33 51.615 2.189l-13.69 9.545a1.207 1.207 0 0 0-.298 1.69c.388.547 1.149.68 1.7.295l13.69-9.544c3.952-2.75 9.407-1.794 12.173 2.13L77.806 24.2a8.673 8.673 0 0 1 1.002 1.867c.242.625.948.937 1.577.697.63-.24.943-.942.701-1.567z" id="Combined-Shape" fill-rule="nonzero"/><path d="M16.071 61.735l-2.146 1.173c-.622.34-1.034.056-.919-.646l.417-2.527-1.751-1.774c-.495-.502-.325-.995.363-1.099l2.4-.362 1.087-2.29c.303-.639.798-.633 1.099 0l1.087 2.29 2.4.362c.695.105.857.598.363 1.099l-1.752 1.774.417 2.527c.115.696-.303.982-.918.646l-2.147-1.173z" id="Star-2"/><path d="M31.734 25.056l19.853-13.9a1.34 1.34 0 0 1 1.87.331 1.34 1.34 0 0 1-.328 1.87l-16.708 11.7h-4.687zm11.226 0L67.03 8.201a1.304 1.304 0 0 1 1.821.32 1.31 1.31 0 0 1-.322 1.82L47.515 25.056h-4.556z" id="Combined-Shape"/></g></g><g id="Group-Copy-13" mask="url(#mask-2)" fill="#F3F3F8"><g transform="translate(712.158 -29.616)"><path d="M81.984 48.9c-3.932 0-7.12-3.166-7.12-7.072s3.188-7.072 7.12-7.072c3.933 0 7.12 3.166 7.12 7.072s-3.187 7.072-7.12 7.072zm0-2.424c2.584 0 4.68-2.081 4.68-4.648 0-2.567-2.096-4.647-4.68-4.647-2.584 0-4.679 2.08-4.679 4.647s2.095 4.648 4.68 4.648z" id="Oval-18" fill-rule="nonzero"/><path d="M81.374 8.891h8.544c2.023 0 3.662 1.628 3.662 3.64v59c0 2.009-1.64 3.638-3.662 3.638H8.948c-3.594 0-6.507-2.894-6.507-6.468V50.91c0-.669-.546-1.212-1.22-1.212A1.219 1.219 0 0 0 0 50.912V68.7c0 4.913 4.005 8.893 8.948 8.893h80.97c3.37 0 6.103-2.715 6.103-6.064v-59c0-3.35-2.731-6.064-6.103-6.064h-8.544c-.674 0-1.22.543-1.22 1.213s.546 1.212 1.22 1.212zM2.441 37.848V15.36c0-3.572 2.916-6.469 6.51-6.469H45.57c.675 0 1.221-.543 1.221-1.212 0-.67-.546-1.213-1.22-1.213H8.95C4.01 6.466 0 10.45 0 15.36v22.488c0 .67.546 1.212 1.22 1.212.675 0 1.221-.543 1.221-1.212z" id="Rectangle-47" fill-rule="nonzero"/><path d="M86.256 76.38c0 2.006-1.668 3.639-3.734 3.639H64.454c-.674 0-1.22.543-1.22 1.212 0 .67.546 1.213 1.22 1.213h18.068c3.406 0 6.176-2.71 6.176-6.063 0-.67-.547-1.213-1.221-1.213s-1.22.543-1.22 1.213zm-32.934 3.64H9.066c-3.663 0-6.625-2.9-6.625-6.468v-4.04c0-.67-.546-1.212-1.22-1.212C.546 68.3 0 68.843 0 69.512v4.04c0 4.915 4.063 8.893 9.066 8.893h44.256c.674 0 1.22-.543 1.22-1.213s-.546-1.212-1.22-1.212z" id="Combined-Shape" fill-rule="nonzero"/><rect id="Rectangle-49-Copy-5" x="8.544" y="69.511" width="13.834" height="2.021" rx="1.01"/><rect id="Rectangle-49-Copy-6" x="24.819" y="69.511" width="13.834" height="2.021" rx="1.01"/><rect id="Rectangle-49-Copy-7" x="41.094" y="69.511" width="13.834" height="2.021" rx="1.01"/><rect id="Rectangle-49-Copy-8" x="57.369" y="69.511" width="13.834" height="2.021" rx="1.01"/><rect id="Rectangle-49-Copy-9" x="73.643" y="69.511" width="13.834" height="2.021" rx="1.01"/><path d="M16.071 61.735l-2.146 1.173c-.622.34-1.034.056-.919-.646l.417-2.527-1.751-1.774c-.495-.502-.325-.995.363-1.099l2.4-.362 1.087-2.29c.303-.639.798-.633 1.099 0l1.087 2.29 2.4.362c.695.105.857.598.363 1.099l-1.752 1.774.417 2.527c.115.696-.303.982-.918.646l-2.147-1.173z" id="Star-2"/></g></g><g id="Group-Copy-14" mask="url(#mask-2)" fill="#3ED3B1"><g transform="translate(109.624 -29.616)"><path d="M81.984 48.9c-3.932 0-7.12-3.166-7.12-7.072s3.188-7.072 7.12-7.072c3.933 0 7.12 3.166 7.12 7.072s-3.187 7.072-7.12 7.072zm0-2.424c2.584 0 4.68-2.081 4.68-4.648 0-2.567-2.096-4.647-4.68-4.647-2.584 0-4.679 2.08-4.679 4.647s2.095 4.648 4.68 4.648z" id="Oval-18" fill-rule="nonzero"/><path d="M81.374 8.891h8.544c2.023 0 3.662 1.628 3.662 3.64v59c0 2.009-1.64 3.638-3.662 3.638H8.948c-3.594 0-6.507-2.894-6.507-6.468V50.91c0-.669-.546-1.212-1.22-1.212A1.219 1.219 0 0 0 0 50.912V68.7c0 4.913 4.005 8.893 8.948 8.893h80.97c3.37 0 6.103-2.715 6.103-6.064v-59c0-3.35-2.731-6.064-6.103-6.064h-8.544c-.674 0-1.22.543-1.22 1.213s.546 1.212 1.22 1.212zM2.441 37.848V15.36c0-3.572 2.916-6.469 6.51-6.469H45.57c.675 0 1.221-.543 1.221-1.212 0-.67-.546-1.213-1.22-1.213H8.95C4.01 6.466 0 10.45 0 15.36v22.488c0 .67.546 1.212 1.22 1.212.675 0 1.221-.543 1.221-1.212z" id="Rectangle-47" fill-rule="nonzero"/><path d="M86.256 76.38c0 2.006-1.668 3.639-3.734 3.639H64.454c-.674 0-1.22.543-1.22 1.212 0 .67.546 1.213 1.22 1.213h18.068c3.406 0 6.176-2.71 6.176-6.063 0-.67-.547-1.213-1.221-1.213s-1.22.543-1.22 1.213zm-32.934 3.64H9.066c-3.663 0-6.625-2.9-6.625-6.468v-4.04c0-.67-.546-1.212-1.22-1.212C.546 68.3 0 68.843 0 69.512v4.04c0 4.915 4.063 8.893 9.066 8.893h44.256c.674 0 1.22-.543 1.22-1.213s-.546-1.212-1.22-1.212z" id="Combined-Shape" fill-rule="nonzero"/><rect id="Rectangle-49-Copy-5" x="8.544" y="69.511" width="13.834" height="2.021" rx="1.01"/><rect id="Rectangle-49-Copy-6" x="24.819" y="69.511" width="13.834" height="2.021" rx="1.01"/><rect id="Rectangle-49-Copy-7" x="41.094" y="69.511" width="13.834" height="2.021" rx="1.01"/><rect id="Rectangle-49-Copy-8" x="57.369" y="69.511" width="13.834" height="2.021" rx="1.01"/><rect id="Rectangle-49-Copy-9" x="73.643" y="69.511" width="13.834" height="2.021" rx="1.01"/><path d="M16.071 61.735l-2.146 1.173c-.622.34-1.034.056-.919-.646l.417-2.527-1.751-1.774c-.495-.502-.325-.995.363-1.099l2.4-.362 1.087-2.29c.303-.639.798-.633 1.099 0l1.087 2.29 2.4.362c.695.105.857.598.363 1.099l-1.752 1.774.417 2.527c.115.696-.303.982-.918.646l-2.147-1.173z" id="Star-2"/></g></g></g></g></g></svg>